<svg width="21" height="20" viewBox="0 0 21 20" fill="none" xmlns="http://www.w3.org/2000/svg">
<g id="vuesax/outline/notification">
<g id="notification">
<path id="Vector" d="M10.8668 17.1083C8.92515 17.1083 6.98348 16.8 5.14182 16.1833C4.44182 15.9417 3.90848 15.45 3.67515 14.8083C3.43348 14.1667 3.51682 13.4583 3.90015 12.825L4.85848 11.2333C5.05848 10.9 5.24182 10.2333 5.24182 9.84165V7.43332C5.24182 4.33332 7.76682 1.80832 10.8668 1.80832C13.9668 1.80832 16.4918 4.33332 16.4918 7.43332V9.84165C16.4918 10.225 16.6751 10.9 16.8751 11.2417L17.8252 12.825C18.1835 13.425 18.2502 14.15 18.0085 14.8083C17.7668 15.4667 17.2418 15.9667 16.5835 16.1833C14.7502 16.8 12.8085 17.1083 10.8668 17.1083ZM10.8668 3.05832C8.45849 3.05832 6.49182 5.01665 6.49182 7.43332V9.84165C6.49182 10.45 6.24182 11.35 5.93348 11.875L4.97515 13.4667C4.79182 13.775 4.74182 14.1 4.85015 14.375C4.95015 14.6583 5.20015 14.875 5.54182 14.9917C9.02515 16.1583 12.7168 16.1583 16.2002 14.9917C16.5002 14.8917 16.7335 14.6667 16.8418 14.3667C16.9502 14.0667 16.9252 13.7417 16.7585 13.4667L15.8002 11.875C15.4835 11.3333 15.2418 10.4417 15.2418 9.83332V7.43332C15.2418 5.01665 13.2835 3.05832 10.8668 3.05832Z" fill="white"/>
<path id="Vector_2" d="M12.4169 3.28334C12.3586 3.28334 12.3003 3.275 12.2419 3.25834C12.0003 3.19167 11.7669 3.14167 11.5419 3.10834C10.8336 3.01667 10.1503 3.06667 9.50861 3.25834C9.27527 3.33334 9.02527 3.25834 8.86694 3.08334C8.70861 2.90834 8.65861 2.65834 8.75027 2.43334C9.09194 1.55834 9.92527 0.983337 10.8753 0.983337C11.8253 0.983337 12.6586 1.55 13.0003 2.43334C13.0836 2.65834 13.0419 2.90834 12.8836 3.08334C12.7586 3.21667 12.5836 3.28334 12.4169 3.28334Z" fill="white"/>
<path id="Vector_3" d="M10.8667 19.0083C10.0417 19.0083 9.2417 18.675 8.65837 18.0917C8.07503 17.5083 7.7417 16.7083 7.7417 15.8833H8.9917C8.9917 16.375 9.1917 16.8583 9.5417 17.2083C9.8917 17.5583 10.375 17.7583 10.8667 17.7583C11.9 17.7583 12.7417 16.9167 12.7417 15.8833H13.9917C13.9917 17.6083 12.5917 19.0083 10.8667 19.0083Z" fill="white"/>
</g>
</g>
</svg>
